<svg xmlns="http://www.w3.org/2000/svg" viewBox="0 0 1440 810"><path d="M0 0h1440v810H0z"/><path fill="#201194" fill-rule="evenodd" d="M85.869 0h5.185v139h226.822c1.72 2.7 1.3 6.265 1.3 10.692V576.4c-3.638 2.318-12.4 1.3-18.146 1.3H91.053V810h-5.184V572.508h228.118V144.18H85.869V0Zm23.654 0h5.184v114.048h228.767c1.633 2.561 1.3 7.291 1.3 11.664v474.336c-3.692 2.353-12.658 1.3-18.469 1.3H114.707V800.6h91.054c1.606 2.45 1.358 5.263 1.3 9.4h-5.185v-4.212h-92.353V596.16h230.063V119.232H109.523V0Zm67.4 0h5.184v46.98h157.155V0h5.184v50.868c-2.933 1.869-9.08 1.3-13.933 1.3H178.218c-2.044-3.2-1.3-10.36-1.3-15.552V0Zm229.414 0h5.184v322.056h65.455V185h136.741v-65.12H476.976V0h5.184v114.7h135.446c2.668 4.185 1.3 14.958 1.3 21.384v52.812c-2.615 1.665-7.547 1.3-11.989 1.3H482.16v135.748c-4.185 2.668-14.959 1.3-21.386 1.3h-53.141c-2.667-4.185-1.3-18.5-1.3-25.272V0ZM543.4 0h5.185v46.656H686.3v137.7h64.158v-137.7h138.363V0h5.184v50.544c-2.614 1.665-7.547 1.3-11.989 1.3H756.292v136.4c-4.186 2.668-14.96 1.3-21.387 1.3h-52.493c-1.665-2.614-1.3-7.546-1.3-11.988V51.84H544.7c-2.043-3.2-1.3-10.36-1.3-15.552V0Zm411.848 0h5.184v119.88H823.69V185h136.742v137.056h65.458V0h5.18v325.944c-4.18 2.668-14.96 1.3-21.39 1.3h-53.136c-1.666-2.615-1.3-7.546-1.3-11.988V190.188H819.8c-2.668-4.185-1.3-14.958-1.3-21.384v-52.812c2.615-1.665 7.547-1.3 11.989-1.3h124.759V0Zm137.712 0h5.19v46.98h157.15V0h5.19v50.868c-2.94 1.869-9.08 1.3-13.94 1.3h-152.29c-2.05-3.2-1.3-10.36-1.3-15.552V0Zm229.42 0h5.5v119.232h-230.06V596.16h230.06v209.628h-92.34V810h-5.19v-8.1c4.28-2.724 19.32-1.3 26.25-1.3h66.1c-.89-21.473-.32-44.4-.32-66.42 0-44.26.3-89.084.32-132.84h-228.77c-1.63-2.561-1.29-7.291-1.29-11.664V115.344c3.69-2.353 12.66-1.3 18.47-1.3h211.59c.02-37.57-.31-75.992-.32-114.044Zm23.97 0h5.19v144.18h-228.12v428.328h228.12V810h-5.19V577.692h-226.82c-1.72-2.7-1.29-6.265-1.29-10.692V140.292c3.63-2.318 12.4-1.3 18.14-1.3h209.97V0ZM202.844 1.3h116c2.656 4.128 1.341 18.848 1.3 25.6-2.7 1.72-6.265 1.3-10.693 1.3H202.844c-2.456-3.743-1.3-13.212-1.3-19.116V2.592c.172-.373 1.015-.855 1.3-1.292Zm529.145 27.54v134.78c-4.1 2.638-18.575 1.341-25.274 1.3-1.666-2.615-1.3-7.546-1.3-11.988V28.836H569c-2.694-4.187-1.341-19.4-1.3-26.244 4.006-2.552 16.856-1.3 23.33-1.3h277.377c2.694 4.187 1.34 19.4 1.3 26.244-2.615 1.665-7.547 1.3-11.989 1.3H731.989ZM1118.56 1.3h116c2.66 4.128 1.34 18.848 1.3 25.6-2.7 1.72-6.27 1.3-10.69 1.3h-106.61c-2.46-3.743-1.3-13.212-1.3-19.116V2.592c.17-.373 1.01-.855 1.3-1.292ZM457.21 138.672h136.417c2.638 4.1 1.341 18.573 1.3 25.272-2.614 1.665-7.547 1.3-11.989 1.3H457.21V301c-4.129 2.656-18.85 1.341-25.6 1.3-2.552-4.006-1.3-16.855-1.3-23.328V2.916c4.129-2.656 18.849-1.341 25.6-1.3 1.665 2.615 1.3 7.546 1.3 11.988v125.068ZM980.2 165.24H843.78c-2.637-4.1-1.341-18.573-1.3-25.272 2.615-1.665 7.547-1.3 11.989-1.3H980.2V2.916c4.129-2.656 18.849-1.341 25.6-1.3 2.55 4.006 1.29 16.855 1.29 23.328V301c-4.13 2.656-18.847 1.341-25.6 1.3-1.665-2.615-1.3-7.546-1.3-11.988V165.24ZM206.733 6.48V23h108.226V6.48H206.733Zm366.156 0v17.172H710.6v136.08h16.2V23.652h137.394V6.48h-291.3Zm549.561 0V23h108.23V6.48h-108.23ZM435.5 6.8v290.3h16.525V160.056h137.714v-16.2H452.025V6.8H435.5Zm549.883 0v137.056H847.669v16.2h137.714v137.052h16.527V6.8h-16.527ZM544.7 251.748h348.009c2.179 3.419 1.3 11.38 1.3 16.848v193.428c-4.333 2.761-19.87 1.3-26.894 1.3H544.7c-1.937-3.041-1.3-9.59-1.3-14.58V265.68c0-4.853-.57-10.997 1.3-13.932Zm3.889 5.184v201.2h340.232v-201.2H548.587Zm20.738 19.116h298.756c1.835 2.88 1.3 8.824 1.3 13.608v148.716c-4.006 2.552-16.856 1.3-23.33 1.3H569.325c-1.667-2.613-1.3-7.547-1.3-11.988V287.388c.004-4.542-.47-8.56 1.3-11.34Zm3.888 5.184v153.252h290.979V281.232H573.213ZM407.633 389.448h72.583c2.214 3.474 1.3 11.635 1.3 17.172v193.752c-4.185 2.668-14.959 1.3-21.386 1.3h-52.497c-1.938-3.041-1.3-9.59-1.3-14.58V403.38c.004-4.853-.568-10.997 1.3-13.932Zm549.559 0h72.578c2.22 3.474 1.3 11.635 1.3 17.172v193.752c-4.18 2.668-14.96 1.3-21.39 1.3h-52.488c-1.938-3.041-1.3-9.59-1.3-14.58V403.38c.008-4.853-.568-10.997 1.3-13.932Zm-545.671 5.184v201.852h64.807V394.632h-64.807Zm549.559 0v201.852h64.81V394.632h-64.81Zm-529.145 18.792h23.655c1.835 2.88 1.3 8.824 1.3 13.608v148.716c-4.069 2.619-18.3 1.341-24.951 1.3-1.667-2.613-1.3-7.547-1.3-11.988V424.764c0-4.542-.474-8.564 1.296-11.34Zm549.883 0h23.652c1.84 2.88 1.3 8.824 1.3 13.608v148.716c-4.07 2.619-18.3 1.341-24.952 1.3-1.667-2.613-1.3-7.547-1.3-11.988V424.764c.004-4.542-.47-8.564 1.3-11.34Zm-545.994 5.184V571.86H451.7V418.608h-15.876Zm549.883 0V571.86h15.873V418.608h-15.873ZM756.292 601.344v136.4c-4.131 2.633-14.7 1.3-21.062 1.3h-52.17c-1.665-2.614-1.3-7.546-1.3-11.988V601.344H545.347c-2.669-4.185-1.3-14.958-1.3-21.384v-52.488c4.334-2.761 19.87-1.3 26.9-1.3h322.41c2.669 4.185 1.3 14.958 1.3 21.384v52.488c-2.614 1.665-7.547 1.3-11.989 1.3H756.292ZM549.235 531.36v64.8h137.714v137.7h63.51v-137.7h137.714v-64.8H549.235Zm183.4 46.98v134.784c-4.1 2.638-18.575 1.341-25.274 1.3-1.666-2.615-1.3-7.546-1.3-11.988V578.34H569.649c-2.694-4.187-1.341-19.4-1.3-26.244 4.006-2.552 16.856-1.3 23.33-1.3h277.052c2.694 4.187 1.34 19.4 1.3 26.244-2.615 1.665-7.547 1.3-11.989 1.3h-125.4Zm-159.1-22.356v17.172h137.716v136.08h14.906v-136.08H863.87v-17.172H573.537ZM344.122 810h-5.508c.007-48.876.336-92.772.324-141.588H182.43v65.124h92.349V810H269.6v-71.28h-91.058c-2.668-4.185-1.3-14.958-1.3-21.384v-52.812c2.933-1.869 9.08-1.3 13.933-1.3h151.651c1.733 2.72 1.3 8.057 1.3 12.636V810Zm823.688-71.28V810h-5.18v-76.464h92.35v-65.124h-156.51c-.02 48.816.31 92.712.32 141.588h-5.5V664.524c2.93-1.869 9.08-1.3 13.93-1.3h151.65c2.66 4.185 1.29 14.958 1.29 21.384v52.812c-4.27 2.724-19.32 1.3-26.24 1.3h-66.11Zm-759.853-74.844h209.325c2.633 4.13 1.3 14.7 1.3 21.06v52.488c-3.474 2.213-11.637 1.3-17.174 1.3H407.957c-2.293-3.568-1.3-12.158-1.3-17.82v-40.18c.004-5.465-.883-13.433 1.3-16.848Zm412.169 0h209.324c2.63 4.13 1.3 14.7 1.3 21.06v52.488c-3.48 2.213-11.64 1.3-17.18 1.3H820.126c-2.293-3.568-1.3-12.158-1.3-17.82v-40.18c.004-5.465-.882-13.433 1.3-16.848Zm-408.281 5.184v64.476h201.548V669.06H411.845Zm412.169 0v64.476h201.546V669.06H824.014ZM319.82 810h-4.861c.013-39.092-.308-78.313-.324-116.964H207.057v16.524h91.053c.023 32 0 66.678 0 100.44h-5.185v-95.256h-89.757c-2.656-4.128-1.341-18.848-1.3-25.6 2.7-1.72 6.265-1.3 10.693-1.3h105.963c1.745 2.741 1.3 6.531 1.3 11.016V810Zm112.115-122.148h161.692c2.619 4.068 1.342 18.3 1.3 24.948-2.933 1.869-9.08 1.3-13.933 1.3H431.935c-2.422-3.689-1.3-12.957-1.3-18.792v-6.156c.172-.377 1.015-.859 1.3-1.3Zm411.845 0h161.69c2.62 4.068 1.34 18.3 1.3 24.948-2.94 1.869-9.082 1.3-13.935 1.3H843.78c-2.422-3.689-1.3-12.957-1.3-18.792v-6.156c.172-.377 1.02-.859 1.3-1.3Zm300.7 26.892V810h-5.18c.01-33.762-.11-68.438 0-100.44h91.05v-16.524h-107.58c.02 38.65-.31 77.873-.32 116.964h-4.86V689.148c2.7-1.72 6.26-1.3 10.69-1.3h105.96c2.66 4.128 1.34 18.848 1.3 25.6-4.25 2.705-19.05 1.3-25.93 1.3h-65.13Zm-708.656-21.708v15.876h153.915v-15.876H435.824Zm411.845 0v15.876h153.911v-15.876H847.669ZM894.005 810h-5.184v-4.212H548.587V810H543.4v-8.1c4.334-2.761 19.87-1.3 26.895-1.3h322.414c1.606 2.454 1.358 5.267 1.296 9.4Zm-412.817 0H476v-3.888h-64.155V810h-5.184v-7.776c4.13-2.633 14.7-1.3 21.062-1.3h52.169c1.579 2.41 1.359 5.003 1.296 9.076Zm549.562 0h-5.19v-3.888H961.4V810h-5.18v-7.776c4.13-2.633 14.7-1.3 21.062-1.3h52.168c1.58 2.41 1.36 5.003 1.3 9.076Z"/></svg>